<?xml version="1.0" encoding="UTF-8"?>
<!DOCTYPE svg PUBLIC "-//W3C//DTD SVG 1.1//EN" "http://www.w3.org/Graphics/SVG/1.1/DTD/svg11.dtd">
<svg version="1.2" width="210mm" height="297mm" viewBox="0 0 21000 29700" preserveAspectRatio="xMidYMid" fill-rule="evenodd" stroke-width="28.222" stroke-linejoin="round" xmlns="http://www.w3.org/2000/svg" xmlns:ooo="http://xml.openoffice.org/svg/export" xmlns:xlink="http://www.w3.org/1999/xlink" xmlns:presentation="http://sun.com/xmlns/staroffice/presentation" xmlns:smil="http://www.w3.org/2001/SMIL20/" xmlns:anim="urn:oasis:names:tc:opendocument:xmlns:animation:1.0" xmlns:svg="urn:oasis:names:tc:opendocument:xmlns:svg-compatible:1.0" xml:space="preserve">
 <defs class="ClipPathGroup">
  <clipPath id="presentation_clip_path" clipPathUnits="userSpaceOnUse">
   <rect x="0" y="0" width="21000" height="29700"/>
  </clipPath>
  <clipPath id="presentation_clip_path_shrink" clipPathUnits="userSpaceOnUse">
   <rect x="21" y="29" width="20958" height="29641"/>
  </clipPath>
 </defs>
 <defs class="TextShapeIndex">
  <g ooo:slide="id1" ooo:id-list="id3 id4 id5 id6"/>
 </defs>
 <defs class="EmbeddedBulletChars">
  <g id="bullet-char-template-57356" transform="scale(0.00048828125,-0.00048828125)">
   <path d="M 580,1141 L 1163,571 580,0 -4,571 580,1141 Z"/>
  </g>
  <g id="bullet-char-template-57354" transform="scale(0.00048828125,-0.00048828125)">
   <path d="M 8,1128 L 1137,1128 1137,0 8,0 8,1128 Z"/>
  </g>
  <g id="bullet-char-template-10146" transform="scale(0.00048828125,-0.00048828125)">
   <path d="M 174,0 L 602,739 174,1481 1456,739 174,0 Z M 1358,739 L 309,1346 659,739 1358,739 Z"/>
  </g>
  <g id="bullet-char-template-10132" transform="scale(0.00048828125,-0.00048828125)">
   <path d="M 2015,739 L 1276,0 717,0 1260,543 174,543 174,936 1260,936 717,1481 1274,1481 2015,739 Z"/>
  </g>
  <g id="bullet-char-template-10007" transform="scale(0.00048828125,-0.00048828125)">
   <path d="M 0,-2 C -7,14 -16,27 -25,37 L 356,567 C 262,823 215,952 215,954 215,979 228,992 255,992 264,992 276,990 289,987 310,991 331,999 354,1012 L 381,999 492,748 772,1049 836,1024 860,1049 C 881,1039 901,1025 922,1006 886,937 835,863 770,784 769,783 710,716 594,584 L 774,223 C 774,196 753,168 711,139 L 727,119 C 717,90 699,76 672,76 641,76 570,178 457,381 L 164,-76 C 142,-110 111,-127 72,-127 30,-127 9,-110 8,-76 1,-67 -2,-52 -2,-32 -2,-23 -1,-13 0,-2 Z"/>
  </g>
  <g id="bullet-char-template-10004" transform="scale(0.00048828125,-0.00048828125)">
   <path d="M 285,-33 C 182,-33 111,30 74,156 52,228 41,333 41,471 41,549 55,616 82,672 116,743 169,778 240,778 293,778 328,747 346,684 L 369,508 C 377,444 397,411 428,410 L 1163,1116 C 1174,1127 1196,1133 1229,1133 1271,1133 1292,1118 1292,1087 L 1292,965 C 1292,929 1282,901 1262,881 L 442,47 C 390,-6 338,-33 285,-33 Z"/>
  </g>
  <g id="bullet-char-template-9679" transform="scale(0.00048828125,-0.00048828125)">
   <path d="M 813,0 C 632,0 489,54 383,161 276,268 223,411 223,592 223,773 276,916 383,1023 489,1130 632,1184 813,1184 992,1184 1136,1130 1245,1023 1353,916 1407,772 1407,592 1407,412 1353,268 1245,161 1136,54 992,0 813,0 Z"/>
  </g>
  <g id="bullet-char-template-8226" transform="scale(0.00048828125,-0.00048828125)">
   <path d="M 346,457 C 273,457 209,483 155,535 101,586 74,649 74,723 74,796 101,859 155,911 209,963 273,989 346,989 419,989 480,963 531,910 582,859 608,796 608,723 608,648 583,586 532,535 482,483 420,457 346,457 Z"/>
  </g>
  <g id="bullet-char-template-8211" transform="scale(0.00048828125,-0.00048828125)">
   <path d="M -4,459 L 1135,459 1135,606 -4,606 -4,459 Z"/>
  </g>
  <g id="bullet-char-template-61548" transform="scale(0.00048828125,-0.00048828125)">
   <path d="M 173,740 C 173,903 231,1043 346,1159 462,1274 601,1332 765,1332 928,1332 1067,1274 1183,1159 1299,1043 1357,903 1357,740 1357,577 1299,437 1183,322 1067,206 928,148 765,148 601,148 462,206 346,322 231,437 173,577 173,740 Z"/>
  </g>
 </defs>
 <g>
  <g id="id2" class="Master_Slide">
   <g id="bg-id2" class="Background"/>
   <g id="bo-id2" class="BackgroundObjects"/>
  </g>
 </g>
 <g class="SlideGroup">
  <g>
   <g id="container-id1">
    <g id="id1" class="Slide" clip-path="url(#presentation_clip_path)">
     <g class="Page">
      <g class="com.sun.star.drawing.CustomShape">
       <g id="id3">
        <rect class="BoundingBox" stroke="none" fill="none" x="1633" y="6396" width="16830" height="16513"/>
        <path fill="rgb(255,0,0)" stroke="none" d="M 10048,22907 L 1634,22907 1634,6397 18461,6397 18461,22907 10048,22907 Z"/>
        <path fill="none" stroke="rgb(255,0,0)" d="M 10048,22907 L 1634,22907 1634,6397 18461,6397 18461,22907 10048,22907 Z"/>
       </g>
      </g>
      <g class="com.sun.star.drawing.ClosedBezierShape">
       <g id="id4">
        <rect class="BoundingBox" stroke="none" fill="none" x="5365" y="10309" width="9275" height="8552"/>
        <path fill="rgb(255,0,0)" stroke="none" d="M 6301,16051 C 6198,16471 6391,16847 6375,17276 6358,17727 6083,18243 6338,18613 6579,18963 7157,18649 7564,18687 8131,18740 8377,18105 8232,17722 8074,17309 8261,16874 8083,16496 7767,15825 8625,16041 8863,16051 9136,16061 9965,15748 9569,16533 9384,16900 9486,17353 9532,17759 9572,18114 9211,18834 10052,18613 10410,18518 11070,18815 11129,18204 11169,17781 11044,17364 10980,16942 10913,16509 10484,15478 10906,15642 11436,15846 11737,16150 12205,16199 12548,16235 13438,15788 13245,16756 13148,17242 12970,17710 13134,18167 13349,18766 14024,18527 14322,18242 14788,17792 14421,16980 14433,16348 14441,15915 14425,15480 14433,15048 14440,14627 14433,14207 14471,13785 14507,13378 14448,12967 14471,12560 14495,12104 14430,11604 14136,11260 13793,10859 13241,10662 12688,10629 12178,10597 11673,10528 11166,10518 10757,10510 10355,10510 9940,10443 9464,10366 8969,10377 8492,10443 8069,10501 7699,10746 7304,10926 6856,11130 6359,11325 6115,11743 5903,12102 5826,12513 5633,12894 5413,13323 5447,13707 5447,14120 5446,14560 5417,15141 5967,15345 L 6264,15716 6301,15902 6301,16051 Z"/>
        <path fill="none" stroke="rgb(0,0,0)" stroke-width="159" stroke-linejoin="round" d="M 6301,16051 C 6198,16471 6391,16847 6375,17276 6358,17727 6083,18243 6338,18613 6579,18963 7157,18649 7564,18687 8131,18740 8377,18105 8232,17722 8074,17309 8261,16874 8083,16496 7767,15825 8625,16041 8863,16051 9136,16061 9965,15748 9569,16533 9384,16900 9486,17353 9532,17759 9572,18114 9211,18834 10052,18613 10410,18518 11070,18815 11129,18204 11169,17781 11044,17364 10980,16942 10913,16509 10484,15478 10906,15642 11436,15846 11737,16150 12205,16199 12548,16235 13438,15788 13245,16756 13148,17242 12970,17710 13134,18167 13349,18766 14024,18527 14322,18242 14788,17792 14421,16980 14433,16348 14441,15915 14425,15480 14433,15048 14440,14627 14433,14207 14471,13785 14507,13378 14448,12967 14471,12560 14495,12104 14430,11604 14136,11260 13793,10859 13241,10662 12688,10629 12178,10597 11673,10528 11166,10518 10757,10510 10355,10510 9940,10443 9464,10366 8969,10377 8492,10443 8069,10501 7699,10746 7304,10926 6856,11130 6359,11325 6115,11743 5903,12102 5826,12513 5633,12894 5413,13323 5447,13707 5447,14120 5446,14560 5417,15141 5967,15345 L 6264,15716 6301,15902 6301,16051 Z"/>
       </g>
      </g>
      <g class="com.sun.star.drawing.ClosedBezierShape">
       <g id="id5">
        <rect class="BoundingBox" stroke="none" fill="none" x="7315" y="11717" width="1957" height="1868"/>
        <path fill="rgb(255,255,255)" stroke="none" d="M 7902,13312 C 7748,13061 7453,12892 7408,12583 7370,12321 7391,11834 7808,11877 8111,11909 8403,11724 8702,11830 9033,11948 9141,12287 9172,12583 9196,12811 9254,13083 8913,13241 8658,13360 8432,13532 8161,13500 L 7926,13359 7926,13335 7902,13312 Z"/>
        <path fill="none" stroke="rgb(0,0,0)" stroke-width="159" stroke-linejoin="round" d="M 7902,13312 C 7748,13061 7453,12892 7408,12583 7370,12321 7391,11834 7808,11877 8111,11909 8403,11724 8702,11830 9033,11948 9141,12287 9172,12583 9196,12811 9254,13083 8913,13241 8658,13360 8432,13532 8161,13500 L 7926,13359 7926,13335 7902,13312 Z"/>
       </g>
      </g>
      <g class="com.sun.star.drawing.ClosedBezierShape">
       <g id="id6">
        <rect class="BoundingBox" stroke="none" fill="none" x="11022" y="11841" width="1961" height="1790"/>
        <path fill="rgb(255,255,255)" stroke="none" d="M 11124,13241 C 11131,12962 11036,12662 11195,12394 11337,12155 11568,11858 11900,11948 12187,12026 12583,11787 12794,12042 12977,12263 12874,12589 12864,12865 12853,13169 12538,13331 12300,13453 12070,13571 11799,13549 11547,13547 L 11289,13500 11148,13312 11124,13241 Z"/>
        <path fill="none" stroke="rgb(0,0,0)" stroke-width="159" stroke-linejoin="round" d="M 11124,13241 C 11131,12962 11036,12662 11195,12394 11337,12155 11568,11858 11900,11948 12187,12026 12583,11787 12794,12042 12977,12263 12874,12589 12864,12865 12853,13169 12538,13331 12300,13453 12070,13571 11799,13549 11547,13547 L 11289,13500 11148,13312 11124,13241 Z"/>
       </g>
      </g>
     </g>
    </g>
   </g>
  </g>
 </g>
</svg>